# xmcd
#
# Track frame offsets:
#	150
#	20570
#	38560
#	76172
#	94750
#	112737
#	132545
#	169385
#	188647
#	207425
#	226427
#	246742
#	264592
#	301087
#
# Disc length: 4221 seconds
#
# Revision: 1
# Processed by: cddbd v1.5.1PL0 Copyright (c) Steve Scherf et al.
# Submitted via: CDex 1.50Beta5
#
DISCID=b9107b0e
DTITLE=44MAGNUM - LIVE and RARE Disc 3
DYEAR=2000
DGENRE=Rock
TTITLE0=YOUR HEART
TTITLE1=AT LAST I’M A FREE MAN
TTITLE2=YOU LOVE ME,DON’T YOU?
TTITLE3=I’M ON FIRE
TTITLE4=DIRTY LADY
TTITLE5=OW!
TTITLE6=SATISFACTION
TTITLE7=I BELIEVE THE TOWN
TTITLE8=WILD BEAST,THE
TTITLE9=COME ON LET’S GO
TTITLE10=I DON’T BELIEVE YOU
TTITLE11=UK
TTITLE12=SATISFACTION
TTITLE13=NO STANDING STILL
EXTD=
EXTT0=
EXTT1=
EXTT2=
EXTT3=
EXTT4=
EXTT5=
EXTT6=
EXTT7=
EXTT8=
EXTT9=
EXTT10=
EXTT11=
EXTT12=
EXTT13=
PLAYORDER=
